<mxfile host="app.diagrams.net" modified="2023-02-12T14:08:07.487Z" agent="5.0 (Windows NT 10.0; Win64; x64) AppleWebKit/537.36 (KHTML, like Gecko) Chrome/97.0.4692.71 Safari/537.36" etag="CfKvgMXcUNTQzNqVhcm5" version="20.8.16" type="github">
  <diagram name="第 1 页" id="7Lkr_Ow56bsafLcugQKO">
    <mxGraphModel dx="1434" dy="764" grid="1" gridSize="10" guides="1" tooltips="1" connect="1" arrows="1" fold="1" page="1" pageScale="1" pageWidth="827" pageHeight="1169" math="0" shadow="0">
      <root>
        <mxCell id="0" />
        <mxCell id="1" parent="0" />
        <mxCell id="Xo9_a6VRl7HIQzImsxzE-1" value="" style="rounded=1;whiteSpace=wrap;html=1;fillColor=#fff2cc;strokeColor=#d6b656;" vertex="1" parent="1">
          <mxGeometry x="280" y="270" width="250" height="230" as="geometry" />
        </mxCell>
        <mxCell id="Xo9_a6VRl7HIQzImsxzE-2" value="" style="rounded=1;whiteSpace=wrap;html=1;fillColor=#d5e8d4;strokeColor=#82b366;" vertex="1" parent="1">
          <mxGeometry x="317" y="325" width="183" height="155" as="geometry" />
        </mxCell>
        <mxCell id="Xo9_a6VRl7HIQzImsxzE-3" value="" style="rounded=1;whiteSpace=wrap;html=1;fillColor=#dae8fc;strokeColor=#6c8ebf;" vertex="1" parent="1">
          <mxGeometry x="360" y="380" width="121.5" height="80" as="geometry" />
        </mxCell>
        <mxCell id="Xo9_a6VRl7HIQzImsxzE-4" value="&lt;font style=&quot;font-size: 18px;&quot;&gt;&lt;b&gt;Bean3&lt;/b&gt;&lt;/font&gt;" style="text;html=1;strokeColor=none;fillColor=none;align=center;verticalAlign=middle;whiteSpace=wrap;rounded=0;" vertex="1" parent="1">
          <mxGeometry x="317" y="280" width="60" height="30" as="geometry" />
        </mxCell>
        <mxCell id="Xo9_a6VRl7HIQzImsxzE-5" value="&lt;font style=&quot;font-size: 18px;&quot;&gt;&lt;b&gt;Bean2&lt;/b&gt;&lt;/font&gt;" style="text;html=1;strokeColor=none;fillColor=none;align=center;verticalAlign=middle;whiteSpace=wrap;rounded=0;" vertex="1" parent="1">
          <mxGeometry x="354" y="340" width="60" height="30" as="geometry" />
        </mxCell>
        <mxCell id="Xo9_a6VRl7HIQzImsxzE-6" value="&lt;font style=&quot;font-size: 18px;&quot;&gt;&lt;b&gt;Bean1&lt;/b&gt;&lt;/font&gt;" style="text;html=1;strokeColor=none;fillColor=none;align=center;verticalAlign=middle;whiteSpace=wrap;rounded=0;" vertex="1" parent="1">
          <mxGeometry x="390.75" y="405" width="60" height="30" as="geometry" />
        </mxCell>
        <mxCell id="Xo9_a6VRl7HIQzImsxzE-7" value="&lt;b&gt;&lt;font style=&quot;font-size: 24px;&quot;&gt;factory.getBean(Bean3.class)&lt;/font&gt;&lt;/b&gt;" style="text;html=1;strokeColor=none;fillColor=none;align=center;verticalAlign=middle;whiteSpace=wrap;rounded=0;fontSize=18;" vertex="1" parent="1">
          <mxGeometry x="220" y="200" width="360" height="50" as="geometry" />
        </mxCell>
        <mxCell id="Xo9_a6VRl7HIQzImsxzE-9" value="" style="rounded=1;whiteSpace=wrap;html=1;fontSize=24;fillColor=#dae8fc;strokeColor=#6c8ebf;" vertex="1" parent="1">
          <mxGeometry x="550" y="595" width="120" height="60" as="geometry" />
        </mxCell>
        <mxCell id="Xo9_a6VRl7HIQzImsxzE-24" style="edgeStyle=orthogonalEdgeStyle;rounded=0;orthogonalLoop=1;jettySize=auto;html=1;entryX=0;entryY=0.5;entryDx=0;entryDy=0;fontSize=24;" edge="1" parent="1" source="Xo9_a6VRl7HIQzImsxzE-10" target="Xo9_a6VRl7HIQzImsxzE-9">
          <mxGeometry relative="1" as="geometry" />
        </mxCell>
        <mxCell id="Xo9_a6VRl7HIQzImsxzE-10" value="" style="rounded=1;whiteSpace=wrap;html=1;fontSize=24;fillColor=#d5e8d4;strokeColor=#82b366;" vertex="1" parent="1">
          <mxGeometry x="340" y="595" width="120" height="60" as="geometry" />
        </mxCell>
        <mxCell id="Xo9_a6VRl7HIQzImsxzE-23" style="edgeStyle=orthogonalEdgeStyle;rounded=0;orthogonalLoop=1;jettySize=auto;html=1;entryX=0;entryY=0.5;entryDx=0;entryDy=0;fontSize=24;" edge="1" parent="1" source="Xo9_a6VRl7HIQzImsxzE-11" target="Xo9_a6VRl7HIQzImsxzE-10">
          <mxGeometry relative="1" as="geometry" />
        </mxCell>
        <mxCell id="Xo9_a6VRl7HIQzImsxzE-11" value="" style="rounded=1;whiteSpace=wrap;html=1;fontSize=24;fillColor=#fff2cc;strokeColor=#d6b656;" vertex="1" parent="1">
          <mxGeometry x="140" y="595" width="120" height="60" as="geometry" />
        </mxCell>
        <mxCell id="Xo9_a6VRl7HIQzImsxzE-12" value="&lt;font style=&quot;font-size: 18px;&quot;&gt;&lt;b&gt;Bean1&lt;/b&gt;&lt;/font&gt;" style="text;html=1;strokeColor=none;fillColor=none;align=center;verticalAlign=middle;whiteSpace=wrap;rounded=0;" vertex="1" parent="1">
          <mxGeometry x="580" y="610" width="60" height="30" as="geometry" />
        </mxCell>
        <mxCell id="Xo9_a6VRl7HIQzImsxzE-13" value="&lt;font style=&quot;font-size: 18px;&quot;&gt;&lt;b&gt;Bean2&lt;/b&gt;&lt;/font&gt;" style="text;html=1;strokeColor=none;fillColor=none;align=center;verticalAlign=middle;whiteSpace=wrap;rounded=0;" vertex="1" parent="1">
          <mxGeometry x="370" y="610" width="60" height="30" as="geometry" />
        </mxCell>
        <mxCell id="Xo9_a6VRl7HIQzImsxzE-14" value="&lt;font style=&quot;font-size: 18px;&quot;&gt;&lt;b&gt;Bean3&lt;/b&gt;&lt;/font&gt;" style="text;html=1;strokeColor=none;fillColor=none;align=center;verticalAlign=middle;whiteSpace=wrap;rounded=0;" vertex="1" parent="1">
          <mxGeometry x="170" y="610" width="60" height="30" as="geometry" />
        </mxCell>
        <mxCell id="Xo9_a6VRl7HIQzImsxzE-15" value="Bean 的实例化完成顺序" style="text;html=1;strokeColor=none;fillColor=none;align=center;verticalAlign=middle;whiteSpace=wrap;rounded=0;fontSize=24;" vertex="1" parent="1">
          <mxGeometry x="280" y="550" width="260" height="30" as="geometry" />
        </mxCell>
        <mxCell id="Xo9_a6VRl7HIQzImsxzE-25" style="edgeStyle=orthogonalEdgeStyle;rounded=0;orthogonalLoop=1;jettySize=auto;html=1;entryX=0;entryY=0.5;entryDx=0;entryDy=0;fontSize=24;" edge="1" parent="1" source="Xo9_a6VRl7HIQzImsxzE-16" target="Xo9_a6VRl7HIQzImsxzE-17">
          <mxGeometry relative="1" as="geometry" />
        </mxCell>
        <mxCell id="Xo9_a6VRl7HIQzImsxzE-16" value="" style="rounded=1;whiteSpace=wrap;html=1;fontSize=24;fillColor=#dae8fc;strokeColor=#6c8ebf;" vertex="1" parent="1">
          <mxGeometry x="140" y="735" width="120" height="60" as="geometry" />
        </mxCell>
        <mxCell id="Xo9_a6VRl7HIQzImsxzE-26" style="edgeStyle=orthogonalEdgeStyle;rounded=0;orthogonalLoop=1;jettySize=auto;html=1;entryX=0;entryY=0.5;entryDx=0;entryDy=0;fontSize=24;" edge="1" parent="1" source="Xo9_a6VRl7HIQzImsxzE-17" target="Xo9_a6VRl7HIQzImsxzE-18">
          <mxGeometry relative="1" as="geometry" />
        </mxCell>
        <mxCell id="Xo9_a6VRl7HIQzImsxzE-17" value="" style="rounded=1;whiteSpace=wrap;html=1;fontSize=24;fillColor=#d5e8d4;strokeColor=#82b366;" vertex="1" parent="1">
          <mxGeometry x="343.5" y="735" width="120" height="60" as="geometry" />
        </mxCell>
        <mxCell id="Xo9_a6VRl7HIQzImsxzE-18" value="" style="rounded=1;whiteSpace=wrap;html=1;fontSize=24;fillColor=#fff2cc;strokeColor=#d6b656;" vertex="1" parent="1">
          <mxGeometry x="550" y="735" width="120" height="60" as="geometry" />
        </mxCell>
        <mxCell id="Xo9_a6VRl7HIQzImsxzE-19" value="&lt;font style=&quot;font-size: 18px;&quot;&gt;&lt;b&gt;Bean1&lt;/b&gt;&lt;/font&gt;" style="text;html=1;strokeColor=none;fillColor=none;align=center;verticalAlign=middle;whiteSpace=wrap;rounded=0;" vertex="1" parent="1">
          <mxGeometry x="170" y="750" width="60" height="30" as="geometry" />
        </mxCell>
        <mxCell id="Xo9_a6VRl7HIQzImsxzE-20" value="&lt;font style=&quot;font-size: 18px;&quot;&gt;&lt;b&gt;Bean2&lt;/b&gt;&lt;/font&gt;" style="text;html=1;strokeColor=none;fillColor=none;align=center;verticalAlign=middle;whiteSpace=wrap;rounded=0;" vertex="1" parent="1">
          <mxGeometry x="373.5" y="750" width="60" height="30" as="geometry" />
        </mxCell>
        <mxCell id="Xo9_a6VRl7HIQzImsxzE-21" value="&lt;font style=&quot;font-size: 18px;&quot;&gt;&lt;b&gt;Bean3&lt;/b&gt;&lt;/font&gt;" style="text;html=1;strokeColor=none;fillColor=none;align=center;verticalAlign=middle;whiteSpace=wrap;rounded=0;" vertex="1" parent="1">
          <mxGeometry x="580" y="750" width="60" height="30" as="geometry" />
        </mxCell>
        <mxCell id="Xo9_a6VRl7HIQzImsxzE-22" value="Bean 的初始化完成顺序" style="text;html=1;strokeColor=none;fillColor=none;align=center;verticalAlign=middle;whiteSpace=wrap;rounded=0;fontSize=24;" vertex="1" parent="1">
          <mxGeometry x="283.5" y="690" width="260" height="30" as="geometry" />
        </mxCell>
        <mxCell id="Xo9_a6VRl7HIQzImsxzE-29" style="edgeStyle=orthogonalEdgeStyle;rounded=0;orthogonalLoop=1;jettySize=auto;html=1;fontSize=24;" edge="1" parent="1" source="Xo9_a6VRl7HIQzImsxzE-27" target="Xo9_a6VRl7HIQzImsxzE-28">
          <mxGeometry relative="1" as="geometry" />
        </mxCell>
        <mxCell id="Xo9_a6VRl7HIQzImsxzE-27" value="通过无参构造器实例化 Bean&amp;nbsp;" style="rounded=1;whiteSpace=wrap;html=1;fontSize=24;" vertex="1" parent="1">
          <mxGeometry x="121.59" y="1125" width="206.88" height="60" as="geometry" />
        </mxCell>
        <mxCell id="Xo9_a6VRl7HIQzImsxzE-28" value="在 BeanFactory 中寻找或创建依赖实例" style="rounded=1;whiteSpace=wrap;html=1;fontSize=24;" vertex="1" parent="1">
          <mxGeometry x="110.03" y="1229" width="230" height="80" as="geometry" />
        </mxCell>
        <mxCell id="Xo9_a6VRl7HIQzImsxzE-31" style="edgeStyle=orthogonalEdgeStyle;rounded=0;orthogonalLoop=1;jettySize=auto;html=1;entryX=0.5;entryY=0;entryDx=0;entryDy=0;fontSize=24;" edge="1" parent="1" source="Xo9_a6VRl7HIQzImsxzE-30" target="Xo9_a6VRl7HIQzImsxzE-27">
          <mxGeometry relative="1" as="geometry" />
        </mxCell>
        <mxCell id="Xo9_a6VRl7HIQzImsxzE-30" value="属性，方法依赖注入" style="ellipse;whiteSpace=wrap;html=1;fontSize=24;" vertex="1" parent="1">
          <mxGeometry x="149.28" y="1000" width="151.5" height="80" as="geometry" />
        </mxCell>
        <mxCell id="Xo9_a6VRl7HIQzImsxzE-32" style="edgeStyle=orthogonalEdgeStyle;rounded=0;orthogonalLoop=1;jettySize=auto;html=1;fontSize=24;" edge="1" parent="1" source="Xo9_a6VRl7HIQzImsxzE-33" target="Xo9_a6VRl7HIQzImsxzE-34">
          <mxGeometry relative="1" as="geometry" />
        </mxCell>
        <mxCell id="Xo9_a6VRl7HIQzImsxzE-33" value="在 BeanFactory 中寻找或创建依赖实例" style="rounded=1;whiteSpace=wrap;html=1;fontSize=24;" vertex="1" parent="1">
          <mxGeometry x="427.71999999999997" y="1120" width="279.25" height="70" as="geometry" />
        </mxCell>
        <mxCell id="Xo9_a6VRl7HIQzImsxzE-34" value="通过有参构造器实例化 Bean" style="rounded=1;whiteSpace=wrap;html=1;fontSize=24;" vertex="1" parent="1">
          <mxGeometry x="452.34" y="1233.5" width="230" height="71" as="geometry" />
        </mxCell>
        <mxCell id="Xo9_a6VRl7HIQzImsxzE-35" style="edgeStyle=orthogonalEdgeStyle;rounded=0;orthogonalLoop=1;jettySize=auto;html=1;entryX=0.5;entryY=0;entryDx=0;entryDy=0;fontSize=24;" edge="1" parent="1" source="Xo9_a6VRl7HIQzImsxzE-36" target="Xo9_a6VRl7HIQzImsxzE-33">
          <mxGeometry relative="1" as="geometry" />
        </mxCell>
        <mxCell id="Xo9_a6VRl7HIQzImsxzE-36" value="构造器&lt;br&gt;依赖注入" style="ellipse;whiteSpace=wrap;html=1;fontSize=24;" vertex="1" parent="1">
          <mxGeometry x="491.59" y="1000" width="151.5" height="80" as="geometry" />
        </mxCell>
        <mxCell id="Xo9_a6VRl7HIQzImsxzE-37" value="构造器注入与属性、方法依赖注入的区别" style="text;html=1;strokeColor=none;fillColor=none;align=center;verticalAlign=middle;whiteSpace=wrap;rounded=0;fontSize=24;" vertex="1" parent="1">
          <mxGeometry x="178.5" y="900" width="460" height="60" as="geometry" />
        </mxCell>
        <mxCell id="Xo9_a6VRl7HIQzImsxzE-40" style="edgeStyle=orthogonalEdgeStyle;rounded=0;orthogonalLoop=1;jettySize=auto;html=1;entryX=0.5;entryY=0;entryDx=0;entryDy=0;fontSize=24;" edge="1" parent="1" source="Xo9_a6VRl7HIQzImsxzE-38" target="Xo9_a6VRl7HIQzImsxzE-39">
          <mxGeometry relative="1" as="geometry" />
        </mxCell>
        <mxCell id="Xo9_a6VRl7HIQzImsxzE-38" value="开始创建 Bean1" style="strokeWidth=2;html=1;shape=mxgraph.flowchart.start_1;whiteSpace=wrap;fontSize=24;" vertex="1" parent="1">
          <mxGeometry x="370.01" y="1510" width="111.5" height="70" as="geometry" />
        </mxCell>
        <mxCell id="Xo9_a6VRl7HIQzImsxzE-42" style="edgeStyle=orthogonalEdgeStyle;rounded=0;orthogonalLoop=1;jettySize=auto;html=1;fontSize=24;" edge="1" parent="1" source="Xo9_a6VRl7HIQzImsxzE-39" target="Xo9_a6VRl7HIQzImsxzE-41">
          <mxGeometry relative="1" as="geometry" />
        </mxCell>
        <mxCell id="Xo9_a6VRl7HIQzImsxzE-39" value="寻找Bean1合适的构造器" style="rounded=1;whiteSpace=wrap;html=1;absoluteArcSize=1;arcSize=14;strokeWidth=2;fontSize=24;" vertex="1" parent="1">
          <mxGeometry x="317.57" y="1610" width="216.37" height="60" as="geometry" />
        </mxCell>
        <mxCell id="Xo9_a6VRl7HIQzImsxzE-51" style="edgeStyle=orthogonalEdgeStyle;rounded=0;orthogonalLoop=1;jettySize=auto;html=1;fontSize=24;" edge="1" parent="1" source="Xo9_a6VRl7HIQzImsxzE-41" target="Xo9_a6VRl7HIQzImsxzE-50">
          <mxGeometry relative="1" as="geometry" />
        </mxCell>
        <mxCell id="Xo9_a6VRl7HIQzImsxzE-41" value="Bean1构造器需要提供 Bean2 实例作为参数" style="rounded=1;whiteSpace=wrap;html=1;absoluteArcSize=1;arcSize=14;strokeWidth=2;fontSize=24;" vertex="1" parent="1">
          <mxGeometry x="304.55" y="1710" width="242.43" height="70" as="geometry" />
        </mxCell>
        <mxCell id="Xo9_a6VRl7HIQzImsxzE-48" style="edgeStyle=orthogonalEdgeStyle;rounded=0;orthogonalLoop=1;jettySize=auto;html=1;fontSize=24;" edge="1" parent="1" source="Xo9_a6VRl7HIQzImsxzE-45" target="Xo9_a6VRl7HIQzImsxzE-47">
          <mxGeometry relative="1" as="geometry" />
        </mxCell>
        <mxCell id="Xo9_a6VRl7HIQzImsxzE-45" value="寻找Bean2合适的构造器" style="rounded=1;whiteSpace=wrap;html=1;absoluteArcSize=1;arcSize=14;strokeWidth=2;fontSize=24;" vertex="1" parent="1">
          <mxGeometry x="317.57" y="1910" width="216.37" height="60" as="geometry" />
        </mxCell>
        <mxCell id="Xo9_a6VRl7HIQzImsxzE-49" style="edgeStyle=orthogonalEdgeStyle;rounded=0;orthogonalLoop=1;jettySize=auto;html=1;entryX=0;entryY=0.5;entryDx=0;entryDy=0;entryPerimeter=0;fontSize=24;exitX=0.476;exitY=1;exitDx=0;exitDy=0;exitPerimeter=0;" edge="1" parent="1" source="Xo9_a6VRl7HIQzImsxzE-47" target="Xo9_a6VRl7HIQzImsxzE-38">
          <mxGeometry relative="1" as="geometry">
            <Array as="points">
              <mxPoint x="420" y="2120" />
              <mxPoint x="190" y="2120" />
              <mxPoint x="190" y="1545" />
            </Array>
          </mxGeometry>
        </mxCell>
        <mxCell id="Xo9_a6VRl7HIQzImsxzE-47" value="Bean2构造器需要提供 Bean1 实例作为参数" style="rounded=1;whiteSpace=wrap;html=1;absoluteArcSize=1;arcSize=14;strokeWidth=2;fontSize=24;" vertex="1" parent="1">
          <mxGeometry x="304.54" y="2000" width="242.43" height="70" as="geometry" />
        </mxCell>
        <mxCell id="Xo9_a6VRl7HIQzImsxzE-52" style="edgeStyle=orthogonalEdgeStyle;rounded=0;orthogonalLoop=1;jettySize=auto;html=1;fontSize=24;" edge="1" parent="1" source="Xo9_a6VRl7HIQzImsxzE-50" target="Xo9_a6VRl7HIQzImsxzE-45">
          <mxGeometry relative="1" as="geometry" />
        </mxCell>
        <mxCell id="Xo9_a6VRl7HIQzImsxzE-50" value="开始创建 Bean2" style="strokeWidth=2;html=1;shape=mxgraph.flowchart.start_1;whiteSpace=wrap;fontSize=24;" vertex="1" parent="1">
          <mxGeometry x="370" y="1810" width="111.5" height="70" as="geometry" />
        </mxCell>
      </root>
    </mxGraphModel>
  </diagram>
</mxfile>
